REM DIRINDEX 1\4,1\2\5,1\2\6,1\3\7,1\3\8
REM DIRNAME cjc124,folder01,folder02,folder03,folder04,folder05,folder06,folder07
TITLE ""
FILE "108_Day54_Check3_Sentences.mp3" MP3
  TRACK 01 AUDIO
    TITLE "0:"
    INDEX 01 00:00:00
  TRACK 02 AUDIO
    TITLE "4:cjc124_3534"
    INDEX 01 00:00:25
  TRACK 03 AUDIO
    TITLE "0:"
    INDEX 01 00:02:00
  TRACK 04 AUDIO
    TITLE "7:cjc124_3535"
    INDEX 01 00:02:43
  TRACK 05 AUDIO
    TITLE "0:"
    INDEX 01 00:04:60
  TRACK 06 AUDIO
    TITLE "8:cjc124_3536"
    INDEX 01 00:05:01
  TRACK 07 AUDIO
    TITLE "0:"
    INDEX 01 00:06:63
  TRACK 08 AUDIO
    TITLE "7:cjc124_3537"
    INDEX 01 00:07:31
  TRACK 09 AUDIO
    TITLE "0:"
    INDEX 01 00:11:68
  TRACK 10 AUDIO
    TITLE "8:cjc124_3538"
    INDEX 01 00:12:07
  TRACK 11 AUDIO
    TITLE "0:"
    INDEX 01 00:15:05
  TRACK 12 AUDIO
    TITLE "7:cjc124_3539"
    INDEX 01 00:15:42
  TRACK 13 AUDIO
    TITLE "0:"
    INDEX 01 00:19:03
  TRACK 14 AUDIO
    TITLE "8:cjc124_3540"
    INDEX 01 00:19:18
  TRACK 15 AUDIO
    TITLE "0:"
    INDEX 01 00:23:14
  TRACK 16 AUDIO
    TITLE "7:cjc124_3541"
    INDEX 01 00:23:51
  TRACK 17 AUDIO
    TITLE "0:"
    INDEX 01 00:27:53
  TRACK 18 AUDIO
    TITLE "8:cjc124_3542"
    INDEX 01 00:27:69
  TRACK 19 AUDIO
    TITLE "0:"
    INDEX 01 00:31:14
  TRACK 20 AUDIO
    TITLE "7:cjc124_3543"
    INDEX 01 00:31:53
  TRACK 21 AUDIO
    TITLE "0:"
    INDEX 01 00:34:57
  TRACK 22 AUDIO
    TITLE "8:cjc124_3544"
    INDEX 01 00:34:73
  TRACK 23 AUDIO
    TITLE "0:"
    INDEX 01 00:38:04
  TRACK 24 AUDIO
    TITLE "7:cjc124_3545"
    INDEX 01 00:38:41
  TRACK 25 AUDIO
    TITLE "0:"
    INDEX 01 00:41:34
  TRACK 26 AUDIO
    TITLE "8:cjc124_3546"
    INDEX 01 00:41:49
  TRACK 27 AUDIO
    TITLE "0:"
    INDEX 01 00:44:05
  TRACK 28 AUDIO
    TITLE "7:cjc124_3547"
    INDEX 01 00:44:44
  TRACK 29 AUDIO
    TITLE "0:"
    INDEX 01 00:47:48
  TRACK 30 AUDIO
    TITLE "8:cjc124_3548"
    INDEX 01 00:47:74
  TRACK 31 AUDIO
    TITLE "0:"
    INDEX 01 00:50:52
  TRACK 32 AUDIO
    TITLE "7:cjc124_3549"
    INDEX 01 00:51:11
  TRACK 33 AUDIO
    TITLE "0:"
    INDEX 01 00:53:64
  TRACK 34 AUDIO
    TITLE "8:cjc124_3550"
    INDEX 01 00:54:07
  TRACK 35 AUDIO
    TITLE "0:"
    INDEX 01 00:55:67
  TRACK 36 AUDIO
    TITLE "7:cjc124_3551"
    INDEX 01 00:56:29
  TRACK 37 AUDIO
    TITLE "0:"
    INDEX 01 00:59:10
  TRACK 38 AUDIO
    TITLE "8:cjc124_3552"
    INDEX 01 00:59:26
  TRACK 39 AUDIO
    TITLE "0:"
    INDEX 01 01:01:46
  TRACK 40 AUDIO
    TITLE "7:cjc124_3553"
    INDEX 01 01:02:08
  TRACK 41 AUDIO
    TITLE "0:"
    INDEX 01 01:05:44
  TRACK 42 AUDIO
    TITLE "8:cjc124_3554"
    INDEX 01 01:05:58
  TRACK 43 AUDIO
    TITLE "0:"
    INDEX 01 01:09:48
  TRACK 44 AUDIO
    TITLE "7:cjc124_3555"
    INDEX 01 01:10:12
  TRACK 45 AUDIO
    TITLE "0:"
    INDEX 01 01:12:28
  TRACK 46 AUDIO
    TITLE "8:cjc124_3556"
    INDEX 01 01:12:42
  TRACK 47 AUDIO
    TITLE "0:"
    INDEX 01 01:15:27
  TRACK 48 AUDIO
    TITLE "7:cjc124_3557"
    INDEX 01 01:15:64
  TRACK 49 AUDIO
    TITLE "0:"
    INDEX 01 01:19:28
  TRACK 50 AUDIO
    TITLE "8:cjc124_3558"
    INDEX 01 01:19:42
  TRACK 51 AUDIO
    TITLE "0:"
    INDEX 01 01:22:41
  TRACK 52 AUDIO
    TITLE "7:cjc124_3559"
    INDEX 01 01:23:03
  TRACK 53 AUDIO
    TITLE "0:"
    INDEX 01 01:26:19
  TRACK 54 AUDIO
    TITLE "8:cjc124_3560"
    INDEX 01 01:26:34
  TRACK 55 AUDIO
    TITLE "0:"
    INDEX 01 01:29:43
  TRACK 56 AUDIO
    TITLE "7:cjc124_3561"
    INDEX 01 01:30:05
  TRACK 57 AUDIO
    TITLE "0:"
    INDEX 01 01:33:21
  TRACK 58 AUDIO
    TITLE "8:cjc124_3562"
    INDEX 01 01:33:36
  TRACK 59 AUDIO
    TITLE "0:"
    INDEX 01 01:36:39
  TRACK 60 AUDIO
    TITLE "7:cjc124_3563"
    INDEX 01 01:37:03
  TRACK 61 AUDIO
    TITLE "0:"
    INDEX 01 01:40:38
  TRACK 62 AUDIO
    TITLE "8:cjc124_3564"
    INDEX 01 01:40:52
  TRACK 63 AUDIO
    TITLE "0:"
    INDEX 01 01:44:09
  TRACK 64 AUDIO
    TITLE "7:cjc124_3565"
    INDEX 01 01:44:46
  TRACK 65 AUDIO
    TITLE "0:"
    INDEX 01 01:49:02
  TRACK 66 AUDIO
    TITLE "8:cjc124_3566"
    INDEX 01 01:49:18
  TRACK 67 AUDIO
    TITLE "0:"
    INDEX 01 01:52:71
